<svg aria-roledescription="er" role="graphics-document document" viewBox="0 0 161.052734375 398" style="max-width: 161.053px; background-color: white;" xmlns:xlink="http://www.w3.org/1999/xlink" xmlns="http://www.w3.org/2000/svg" width="100%" id="mermaid-0"><style>#mermaid-0{font-family:"trebuchet ms",verdana,arial,sans-serif;font-size:16px;fill:#000000;}#mermaid-0 .error-icon{fill:#552222;}#mermaid-0 .error-text{fill:#552222;stroke:#552222;}#mermaid-0 .edge-thickness-normal{stroke-width:2px;}#mermaid-0 .edge-thickness-thick{stroke-width:3.5px;}#mermaid-0 .edge-pattern-solid{stroke-dasharray:0;}#mermaid-0 .edge-pattern-dashed{stroke-dasharray:3;}#mermaid-0 .edge-pattern-dotted{stroke-dasharray:2;}#mermaid-0 .marker{fill:#000000;stroke:#000000;}#mermaid-0 .marker.cross{stroke:#000000;}#mermaid-0 svg{font-family:"trebuchet ms",verdana,arial,sans-serif;font-size:16px;}#mermaid-0 .entityBox{fill:#cde498;stroke:#13540c;}#mermaid-0 .attributeBoxOdd{fill:#ffffff;stroke:#13540c;}#mermaid-0 .attributeBoxEven{fill:#f2f2f2;stroke:#13540c;}#mermaid-0 .relationshipLabelBox{fill:hsl(78.1578947368, 58.4615384615%, 84.5098039216%);opacity:0.7;background-color:hsl(78.1578947368, 58.4615384615%, 84.5098039216%);}#mermaid-0 .relationshipLabelBox rect{opacity:0.5;}#mermaid-0 .relationshipLine{stroke:#000000;}#mermaid-0 .entityTitleText{text-anchor:middle;font-size:18px;fill:#000000;}#mermaid-0 :root{--mermaid-font-family:"trebuchet ms",verdana,arial,sans-serif;}</style><g/><defs><marker orient="auto" markerHeight="18" markerWidth="18" refY="9" refX="0" id="ONLY_ONE_START"><path d="M9,0 L9,18 M15,0 L15,18" fill="none" stroke="gray"/></marker></defs><defs><marker orient="auto" markerHeight="18" markerWidth="18" refY="9" refX="18" id="ONLY_ONE_END"><path d="M3,0 L3,18 M9,0 L9,18" fill="none" stroke="gray"/></marker></defs><defs><marker orient="auto" markerHeight="18" markerWidth="30" refY="9" refX="0" id="ZERO_OR_ONE_START"><circle r="6" cy="9" cx="21" fill="white" stroke="gray"/><path d="M9,0 L9,18" fill="none" stroke="gray"/></marker></defs><defs><marker orient="auto" markerHeight="18" markerWidth="30" refY="9" refX="30" id="ZERO_OR_ONE_END"><circle r="6" cy="9" cx="9" fill="white" stroke="gray"/><path d="M21,0 L21,18" fill="none" stroke="gray"/></marker></defs><defs><marker orient="auto" markerHeight="36" markerWidth="45" refY="18" refX="18" id="ONE_OR_MORE_START"><path d="M0,18 Q 18,0 36,18 Q 18,36 0,18 M42,9 L42,27" fill="none" stroke="gray"/></marker></defs><defs><marker orient="auto" markerHeight="36" markerWidth="45" refY="18" refX="27" id="ONE_OR_MORE_END"><path d="M3,9 L3,27 M9,18 Q27,0 45,18 Q27,36 9,18" fill="none" stroke="gray"/></marker></defs><defs><marker orient="auto" markerHeight="36" markerWidth="57" refY="18" refX="18" id="ZERO_OR_MORE_START"><circle r="6" cy="18" cx="48" fill="white" stroke="gray"/><path d="M0,18 Q18,0 36,18 Q18,36 0,18" fill="none" stroke="gray"/></marker></defs><defs><marker orient="auto" markerHeight="36" markerWidth="57" refY="18" refX="39" id="ZERO_OR_MORE_END"><circle r="6" cy="18" cx="9" fill="white" stroke="gray"/><path d="M21,18 Q39,0 57,18 Q39,36 21,18" fill="none" stroke="gray"/></marker></defs><path style="stroke: gray; fill: none;" marker-start="url(#ZERO_OR_MORE_START)" marker-end="url(#ONLY_ONE_END)" d="M80.5263671875,170L80.5263671875,178.33333333333334C80.5263671875,186.66666666666666,80.5263671875,203.33333333333334,80.5263671875,220C80.5263671875,236.66666666666666,80.5263671875,253.33333333333334,80.5263671875,261.6666666666667L80.5263671875,270" class="er relationshipLine"/><g transform="translate(30.5263671875,20 )" id="entity-funcionario-9557e9bf-b25a-5ab0-8d8e-47644b7b3989"><rect height="150" width="100" y="0" x="0" class="er entityBox"/><text style="dominant-baseline: middle; text-anchor: middle; font-size: 12px;" transform="translate(50,12)" y="0" x="0" id="text-entity-funcionario-9557e9bf-b25a-5ab0-8d8e-47644b7b3989" class="er entityLabel">funcionario</text><rect height="21" width="37.33598836263021" y="24" x="0" class="er attributeBoxOdd"/><text style="dominant-baseline: middle; font-size: 10.2px;" transform="translate(5,34.5)" y="0" x="0" id="text-entity-funcionario-9557e9bf-b25a-5ab0-8d8e-47644b7b3989-attr-1-type" class="er entityLabel">String</text><rect height="21" width="38.48009236653646" y="24" x="37.33598836263021" class="er attributeBoxOdd"/><text style="dominant-baseline: middle; font-size: 10.2px;" transform="translate(42.33598836263021,34.5)" y="0" x="0" id="text-entity-funcionario-9557e9bf-b25a-5ab0-8d8e-47644b7b3989-attr-1-name" class="er entityLabel">id</text><rect height="21" width="24.183919270833332" y="24" x="75.81608072916667" class="er attributeBoxOdd"/><text style="dominant-baseline: middle; font-size: 10.2px;" transform="translate(80.81608072916667,34.5)" y="0" x="0" id="text-entity-funcionario-9557e9bf-b25a-5ab0-8d8e-47644b7b3989-attr-1-key" class="er entityLabel">PK</text><rect height="21" width="37.33598836263021" y="45" x="0" class="er attributeBoxEven"/><text style="dominant-baseline: middle; font-size: 10.2px;" transform="translate(5,55.5)" y="0" x="0" id="text-entity-funcionario-9557e9bf-b25a-5ab0-8d8e-47644b7b3989-attr-2-type" class="er entityLabel">String</text><rect height="21" width="38.48009236653646" y="45" x="37.33598836263021" class="er attributeBoxEven"/><text style="dominant-baseline: middle; font-size: 10.2px;" transform="translate(42.33598836263021,55.5)" y="0" x="0" id="text-entity-funcionario-9557e9bf-b25a-5ab0-8d8e-47644b7b3989-attr-2-name" class="er entityLabel">nome</text><rect height="21" width="24.183919270833332" y="45" x="75.81608072916667" class="er attributeBoxEven"/><text style="dominant-baseline: middle; font-size: 10.2px;" transform="translate(80.81608072916667,55.5)" y="0" x="0" id="text-entity-funcionario-9557e9bf-b25a-5ab0-8d8e-47644b7b3989-attr-2-key" class="er entityLabel"/><rect height="21" width="37.33598836263021" y="66" x="0" class="er attributeBoxOdd"/><text style="dominant-baseline: middle; font-size: 10.2px;" transform="translate(5,76.5)" y="0" x="0" id="text-entity-funcionario-9557e9bf-b25a-5ab0-8d8e-47644b7b3989-attr-3-type" class="er entityLabel">String</text><rect height="21" width="38.48009236653646" y="66" x="37.33598836263021" class="er attributeBoxOdd"/><text style="dominant-baseline: middle; font-size: 10.2px;" transform="translate(42.33598836263021,76.5)" y="0" x="0" id="text-entity-funcionario-9557e9bf-b25a-5ab0-8d8e-47644b7b3989-attr-3-name" class="er entityLabel">email</text><rect height="21" width="24.183919270833332" y="66" x="75.81608072916667" class="er attributeBoxOdd"/><text style="dominant-baseline: middle; font-size: 10.2px;" transform="translate(80.81608072916667,76.5)" y="0" x="0" id="text-entity-funcionario-9557e9bf-b25a-5ab0-8d8e-47644b7b3989-attr-3-key" class="er entityLabel"/><rect height="21" width="37.33598836263021" y="87" x="0" class="er attributeBoxEven"/><text style="dominant-baseline: middle; font-size: 10.2px;" transform="translate(5,97.5)" y="0" x="0" id="text-entity-funcionario-9557e9bf-b25a-5ab0-8d8e-47644b7b3989-attr-4-type" class="er entityLabel">String</text><rect height="21" width="38.48009236653646" y="87" x="37.33598836263021" class="er attributeBoxEven"/><text style="dominant-baseline: middle; font-size: 10.2px;" transform="translate(42.33598836263021,97.5)" y="0" x="0" id="text-entity-funcionario-9557e9bf-b25a-5ab0-8d8e-47644b7b3989-attr-4-name" class="er entityLabel">senha</text><rect height="21" width="24.183919270833332" y="87" x="75.81608072916667" class="er attributeBoxEven"/><text style="dominant-baseline: middle; font-size: 10.2px;" transform="translate(80.81608072916667,97.5)" y="0" x="0" id="text-entity-funcionario-9557e9bf-b25a-5ab0-8d8e-47644b7b3989-attr-4-key" class="er entityLabel"/><rect height="21" width="37.33598836263021" y="108" x="0" class="er attributeBoxOdd"/><text style="dominant-baseline: middle; font-size: 10.2px;" transform="translate(5,118.5)" y="0" x="0" id="text-entity-funcionario-9557e9bf-b25a-5ab0-8d8e-47644b7b3989-attr-5-type" class="er entityLabel">String</text><rect height="21" width="38.48009236653646" y="108" x="37.33598836263021" class="er attributeBoxOdd"/><text style="dominant-baseline: middle; font-size: 10.2px;" transform="translate(42.33598836263021,118.5)" y="0" x="0" id="text-entity-funcionario-9557e9bf-b25a-5ab0-8d8e-47644b7b3989-attr-5-name" class="er entityLabel">tel</text><rect height="21" width="24.183919270833332" y="108" x="75.81608072916667" class="er attributeBoxOdd"/><text style="dominant-baseline: middle; font-size: 10.2px;" transform="translate(80.81608072916667,118.5)" y="0" x="0" id="text-entity-funcionario-9557e9bf-b25a-5ab0-8d8e-47644b7b3989-attr-5-key" class="er entityLabel"/><rect height="21" width="37.33598836263021" y="129" x="0" class="er attributeBoxEven"/><text style="dominant-baseline: middle; font-size: 10.2px;" transform="translate(5,139.5)" y="0" x="0" id="text-entity-funcionario-9557e9bf-b25a-5ab0-8d8e-47644b7b3989-attr-6-type" class="er entityLabel">String</text><rect height="21" width="38.48009236653646" y="129" x="37.33598836263021" class="er attributeBoxEven"/><text style="dominant-baseline: middle; font-size: 10.2px;" transform="translate(42.33598836263021,139.5)" y="0" x="0" id="text-entity-funcionario-9557e9bf-b25a-5ab0-8d8e-47644b7b3989-attr-6-name" class="er entityLabel">cargo</text><rect height="21" width="24.183919270833332" y="129" x="75.81608072916667" class="er attributeBoxEven"/><text style="dominant-baseline: middle; font-size: 10.2px;" transform="translate(80.81608072916667,139.5)" y="0" x="0" id="text-entity-funcionario-9557e9bf-b25a-5ab0-8d8e-47644b7b3989-attr-6-key" class="er entityLabel"/></g><g transform="translate(20,270 )" id="entity-companhiaAerea-fab8ac23-1d41-55f0-a8e7-a8c38b12286e"><rect height="108" width="121.052734375" y="0" x="0" class="er entityBox"/><text style="dominant-baseline: middle; text-anchor: middle; font-size: 12px;" transform="translate(60.5263671875,12)" y="0" x="0" id="text-entity-companhiaAerea-fab8ac23-1d41-55f0-a8e7-a8c38b12286e" class="er entityLabel">companhiaAerea</text><rect height="21" width="45.111328125" y="24" x="0" class="er attributeBoxOdd"/><text style="dominant-baseline: middle; font-size: 10.2px;" transform="translate(5,34.5)" y="0" x="0" id="text-entity-companhiaAerea-fab8ac23-1d41-55f0-a8e7-a8c38b12286e-attr-1-type" class="er entityLabel">Int</text><rect height="21" width="43.982147216796875" y="24" x="45.111328125" class="er attributeBoxOdd"/><text style="dominant-baseline: middle; font-size: 10.2px;" transform="translate(50.111328125,34.5)" y="0" x="0" id="text-entity-companhiaAerea-fab8ac23-1d41-55f0-a8e7-a8c38b12286e-attr-1-name" class="er entityLabel">id</text><rect height="21" width="31.959259033203125" y="24" x="89.09347534179688" class="er attributeBoxOdd"/><text style="dominant-baseline: middle; font-size: 10.2px;" transform="translate(94.09347534179688,34.5)" y="0" x="0" id="text-entity-companhiaAerea-fab8ac23-1d41-55f0-a8e7-a8c38b12286e-attr-1-key" class="er entityLabel">PK</text><rect height="21" width="45.111328125" y="45" x="0" class="er attributeBoxEven"/><text style="dominant-baseline: middle; font-size: 10.2px;" transform="translate(5,55.5)" y="0" x="0" id="text-entity-companhiaAerea-fab8ac23-1d41-55f0-a8e7-a8c38b12286e-attr-2-type" class="er entityLabel">String</text><rect height="21" width="43.982147216796875" y="45" x="45.111328125" class="er attributeBoxEven"/><text style="dominant-baseline: middle; font-size: 10.2px;" transform="translate(50.111328125,55.5)" y="0" x="0" id="text-entity-companhiaAerea-fab8ac23-1d41-55f0-a8e7-a8c38b12286e-attr-2-name" class="er entityLabel">nome</text><rect height="21" width="31.959259033203125" y="45" x="89.09347534179688" class="er attributeBoxEven"/><text style="dominant-baseline: middle; font-size: 10.2px;" transform="translate(94.09347534179688,55.5)" y="0" x="0" id="text-entity-companhiaAerea-fab8ac23-1d41-55f0-a8e7-a8c38b12286e-attr-2-key" class="er entityLabel"/><rect height="21" width="45.111328125" y="66" x="0" class="er attributeBoxOdd"/><text style="dominant-baseline: middle; font-size: 10.2px;" transform="translate(5,76.5)" y="0" x="0" id="text-entity-companhiaAerea-fab8ac23-1d41-55f0-a8e7-a8c38b12286e-attr-3-type" class="er entityLabel">String</text><rect height="21" width="43.982147216796875" y="66" x="45.111328125" class="er attributeBoxOdd"/><text style="dominant-baseline: middle; font-size: 10.2px;" transform="translate(50.111328125,76.5)" y="0" x="0" id="text-entity-companhiaAerea-fab8ac23-1d41-55f0-a8e7-a8c38b12286e-attr-3-name" class="er entityLabel">cnpj</text><rect height="21" width="31.959259033203125" y="66" x="89.09347534179688" class="er attributeBoxOdd"/><text style="dominant-baseline: middle; font-size: 10.2px;" transform="translate(94.09347534179688,76.5)" y="0" x="0" id="text-entity-companhiaAerea-fab8ac23-1d41-55f0-a8e7-a8c38b12286e-attr-3-key" class="er entityLabel"/><rect height="21" width="45.111328125" y="87" x="0" class="er attributeBoxEven"/><text style="dominant-baseline: middle; font-size: 10.2px;" transform="translate(5,97.5)" y="0" x="0" id="text-entity-companhiaAerea-fab8ac23-1d41-55f0-a8e7-a8c38b12286e-attr-4-type" class="er entityLabel">String</text><rect height="21" width="43.982147216796875" y="87" x="45.111328125" class="er attributeBoxEven"/><text style="dominant-baseline: middle; font-size: 10.2px;" transform="translate(50.111328125,97.5)" y="0" x="0" id="text-entity-companhiaAerea-fab8ac23-1d41-55f0-a8e7-a8c38b12286e-attr-4-name" class="er entityLabel">email</text><rect height="21" width="31.959259033203125" y="87" x="89.09347534179688" class="er attributeBoxEven"/><text style="dominant-baseline: middle; font-size: 10.2px;" transform="translate(94.09347534179688,97.5)" y="0" x="0" id="text-entity-companhiaAerea-fab8ac23-1d41-55f0-a8e7-a8c38b12286e-attr-4-key" class="er entityLabel"/></g><rect height="14" width="59.03125" y="213" x="51.0107421875" class="er relationshipLabelBox"/><text style="text-anchor: middle; dominant-baseline: middle; font-size: 12px;" y="220" x="80.5263671875" id="rel1" class="er relationshipLabel">companhia</text></svg>