<svg width="28" height="30" viewBox="0 0 28 30" fill="none" xmlns="http://www.w3.org/2000/svg">
<path d="M16.7546 29.3227H11.4155C11.0596 29.3227 10.7511 29.204 10.4901 28.9667C10.2291 28.7294 10.0748 28.4328 10.0274 28.0769L9.60024 24.7667C9.29176 24.648 9.00084 24.5056 8.72748 24.3395C8.45412 24.1734 8.1874 23.9955 7.92733 23.8056L4.83068 25.087C4.49847 25.2056 4.16626 25.2175 3.83405 25.1226C3.50184 25.0277 3.24082 24.826 3.05099 24.5175L0.417052 19.9259C0.227218 19.6174 0.167896 19.2852 0.239083 18.9293C0.310271 18.5733 0.488239 18.2886 0.772989 18.075L3.44252 16.0462C3.41879 15.8801 3.40693 15.7197 3.40693 15.565V14.6054C3.40693 14.4506 3.41879 14.2902 3.44252 14.1241L0.772989 12.0953C0.488239 11.8817 0.310271 11.597 0.239083 11.241C0.167896 10.8851 0.227218 10.5529 0.417052 10.2444L3.05099 5.65281C3.21709 5.3206 3.47194 5.11274 3.81554 5.02921C4.15914 4.94568 4.49752 4.96372 4.83068 5.08331L7.92733 6.36469C8.18835 6.17485 8.46124 5.99689 8.74599 5.83078C9.03074 5.66468 9.31549 5.5223 9.60024 5.40366L10.0274 2.09344C10.0748 1.7375 10.2291 1.44089 10.4901 1.20359C10.7511 0.966302 11.0596 0.847656 11.4155 0.847656H16.7546C17.1105 0.847656 17.419 0.966302 17.68 1.20359C17.941 1.44089 18.0953 1.7375 18.1427 2.09344L18.5699 5.40366C18.8783 5.5223 19.1693 5.66468 19.4426 5.83078C19.716 5.99689 19.9827 6.17485 20.2428 6.36469L23.3394 5.08331C23.6716 4.96467 24.0038 4.9528 24.3361 5.04772C24.6683 5.14263 24.9293 5.34433 25.1191 5.65281L27.7531 10.2444C27.9429 10.5529 28.0022 10.8851 27.931 11.241C27.8598 11.597 27.6819 11.8817 27.3971 12.0953L24.7276 14.1241C24.7513 14.2902 24.7632 14.4506 24.7632 14.6054V15.565C24.7632 15.7197 24.7394 15.8801 24.692 16.0462L27.3615 18.075C27.6463 18.2886 27.8242 18.5733 27.8954 18.9293C27.9666 19.2852 27.9073 19.6174 27.7175 19.9259L25.0835 24.4819C24.8937 24.7904 24.6265 24.9983 24.2819 25.1055C23.9374 25.2128 23.5995 25.2066 23.2682 25.087L20.2428 23.8056C19.9818 23.9955 19.7089 24.1734 19.4241 24.3395C19.1394 24.5056 18.8546 24.648 18.5699 24.7667L18.1427 28.0769C18.0953 28.4328 17.941 28.7294 17.68 28.9667C17.419 29.204 17.1105 29.3227 16.7546 29.3227ZM14.1562 20.0683C15.5325 20.0683 16.7071 19.5818 17.68 18.6089C18.6529 17.636 19.1394 16.4614 19.1394 15.0852C19.1394 13.7089 18.6529 12.5343 17.68 11.5614C16.7071 10.5885 15.5325 10.102 14.1562 10.102C12.7562 10.102 11.5755 10.5885 10.6139 11.5614C9.65244 12.5343 9.17216 13.7089 9.17311 15.0852C9.17311 16.4614 9.65339 17.636 10.6139 18.6089C11.5745 19.5818 12.7553 20.0683 14.1562 20.0683Z" fill="#F8FCFF"/>
</svg>
