<svg width="29" height="29" viewBox="0 0 29 29" fill="none" xmlns="http://www.w3.org/2000/svg">
<path d="M3.54167 30C2.60209 30 1.79746 29.6733 1.12779 29.02C0.458128 28.3667 0.123864 27.5822 0.125003 26.6667V3.33334C0.125003 2.41667 0.459836 1.63167 1.1295 0.978336C1.79917 0.325003 2.60322 -0.00110828 3.54167 2.82966e-06H10.375C11.3146 2.82966e-06 12.1192 0.32667 12.7889 0.980003C13.4585 1.63334 13.7928 2.41778 13.7917 3.33334V26.6667C13.7917 27.5833 13.4568 28.3683 12.7872 29.0217C12.1175 29.675 11.3134 30.0011 10.375 30H3.54167ZM20.625 11.6667C19.6854 11.6667 18.8808 11.34 18.2111 10.6867C17.5415 10.0333 17.2072 9.24889 17.2083 8.33334V3.33334C17.2083 2.41667 17.5432 1.63167 18.2128 0.978336C18.8825 0.325003 19.6866 -0.00110828 20.625 2.82966e-06H27.4583C28.3979 2.82966e-06 29.2025 0.32667 29.8722 0.980003C30.5419 1.63334 30.8761 2.41778 30.875 3.33334V8.33334C30.875 9.25 30.5402 10.035 29.8705 10.6883C29.2008 11.3417 28.3968 11.6678 27.4583 11.6667H20.625ZM20.625 30C19.6854 30 18.8808 29.6733 18.2111 29.02C17.5415 28.3667 17.2072 27.5822 17.2083 26.6667V18.3333C17.2083 17.4167 17.5432 16.6317 18.2128 15.9783C18.8825 15.325 19.6866 14.9989 20.625 15H27.4583C28.3979 15 29.2025 15.3267 29.8722 15.98C30.5419 16.6333 30.8761 17.4178 30.875 18.3333V26.6667C30.875 27.5833 30.5402 28.3683 29.8705 29.0217C29.2008 29.675 28.3968 30.0011 27.4583 30H20.625Z" fill="#F8FCFF"/>
</svg>
