<svg width="30" height="31" viewBox="0 0 30 31" fill="none" xmlns="http://www.w3.org/2000/svg">
<path fill-rule="evenodd" clip-rule="evenodd" d="M11.3694 0.713905C10.25 1.68053 10.25 3.44882 10.25 6.98386V24.0162C10.25 27.5512 10.25 29.3195 11.3694 30.2862C12.4888 31.2528 14.2004 30.9629 17.6236 30.3817L21.3128 29.7558C25.1033 29.1114 26.9985 28.7892 28.1242 27.4356C29.25 26.0805 29.25 24.1226 29.25 20.2052V10.7949C29.25 6.87903 29.25 4.92111 28.1258 3.56599C26.9985 2.2124 25.1017 1.8902 21.3112 1.24732L17.6252 0.619863C14.202 0.0386549 12.4904 -0.251178 11.371 0.715447L11.3694 0.713905ZM15 12.6772C15.6555 12.6772 16.1875 13.2184 16.1875 13.8859V17.1142C16.1875 17.7817 15.6555 18.3228 15 18.3228C14.3445 18.3228 13.8125 17.7817 13.8125 17.1142V13.8859C13.8125 13.2184 14.3445 12.6772 15 12.6772Z" fill="#F8FCFF"/>
<path d="M7.94942 3.9375C4.69092 3.94212 2.992 4.0115 1.909 5.066C0.75 6.1945 0.75 8.01058 0.75 11.6458V19.3542C0.75 22.9879 0.75 24.804 1.909 25.934C2.992 26.987 4.69092 27.0579 7.94942 27.0625C7.875 26.1005 7.875 24.9905 7.875 23.7895V7.21046C7.875 6.00796 7.875 4.89796 7.94942 3.9375Z" fill="#F8FCFF"/>
</svg>
