<svg width="245" height="317" viewBox="0 0 245 317" fill="none" xmlns="http://www.w3.org/2000/svg">
<path d="M0 20.8191C0 9.7734 8.95431 0.819092 20 0.819092H244.917V317H20C8.95429 317 0 308.046 0 297V20.8191Z" fill="#78A8D7"/>
<path d="M55.435 224.507C38.4784 226.616 11.5943 210.05 0.27174 201.504L0.0471669 296.953C0.0211353 308.017 8.98304 317 20.0471 317H135.87C176.74 277.703 163.95 240.562 152.446 226.903C143.66 218.437 120.924 203.708 100.272 212.526C74.4569 223.549 76.6308 221.871 55.435 224.507Z" fill="#C8E8FF"/>
<path d="M196.135 83.9649C211.056 82.0507 234.715 97.089 244.678 104.847L244.917 -0.000137329H125.352C89.3863 35.6741 100.641 69.3907 110.765 81.7897C118.497 89.4756 138.504 102.846 156.678 94.8412C179.395 84.835 177.482 86.3577 196.135 83.9649Z" fill="#A6D7F9"/>
</svg>
