<svg width="308" height="384" viewBox="0 0 308 384" fill="none" xmlns="http://www.w3.org/2000/svg">
<path d="M0.167969 20C0.167969 8.9543 9.12227 0 20.168 0H287.192C298.238 0 307.192 8.95431 307.192 20V363.008C307.192 374.053 298.238 383.008 287.192 383.008H20.1679C9.12224 383.008 0.167969 374.053 0.167969 363.008V20Z" fill="#78A8D7"/>
<path d="M216.825 244.456C244.567 247.615 288.552 222.802 307.076 210L307.469 362.949C307.498 374.014 298.535 383 287.469 383H85.2274C18.3616 324.137 39.2867 268.504 58.1076 248.046C72.4826 235.364 109.68 213.302 143.468 226.51C185.704 243.021 182.147 240.508 216.825 244.456Z" fill="#B0D6F0"/>
<path d="M76.5062 127.332C64.562 125.847 49.0408 131.089 34.6403 138.139C19.8333 145.388 0.486525 135.457 0.447725 118.971L0.214906 20.0471C0.188866 8.98302 9.15079 0 20.2149 0H179.218C184.386 0 189.405 1.97496 192.964 5.72163C242.31 57.6721 225.38 105.895 210.099 124.033C197.999 135.689 166.69 155.965 138.251 143.826C102.701 128.651 105.694 130.961 76.5062 127.332Z" fill="#81BCE4"/>
</svg>
