<svg width="305" height="394" viewBox="0 0 305 394" fill="none" xmlns="http://www.w3.org/2000/svg">
<g filter="url(#filter0_d_621_14)">
<path d="M4 20.9923C4 9.94661 12.9543 0.99231 24 0.99231H280.682C291.728 0.99231 300.682 9.94662 300.682 20.9923V364C300.682 375.046 291.728 384 280.682 384H24C12.9543 384 4 375.046 4 364V20.9923Z" fill="#78A8D7"/>
</g>
<path d="M223.849 255.867C247.448 258.788 284.864 235.839 300.622 224L300.953 363.953C300.979 375.017 292.017 384 280.953 384H111.905C55.0248 329.56 72.825 278.108 88.8351 259.187C101.063 247.458 132.705 227.054 161.448 239.27C197.376 254.539 194.35 252.216 223.849 255.867Z" fill="#C8E8FF"/>
<path d="M63.0934 102.712C56.2156 101.829 47.8055 103.92 39.3602 107.367C23.9661 113.65 4.23453 103.831 4.19661 87.2045L4.04572 21.0456C4.02049 9.9821 12.9821 0.999969 24.0456 0.999969H140.6C145.876 0.999969 151.014 3.05647 154.531 6.98997C191.143 47.944 178.201 85.7529 166.507 100.077C157.141 109.387 132.905 125.583 110.89 115.887C83.3705 103.766 85.6879 105.61 63.0934 102.712Z" fill="#A6D7F9"/>
<defs>
<filter id="filter0_d_621_14" x="0" y="0.99231" width="304.682" height="393.008" filterUnits="userSpaceOnUse" color-interpolation-filters="sRGB">
<feFlood flood-opacity="0" result="BackgroundImageFix"/>
<feColorMatrix in="SourceAlpha" type="matrix" values="0 0 0 0 0 0 0 0 0 0 0 0 0 0 0 0 0 0 127 0" result="hardAlpha"/>
<feOffset dy="6"/>
<feGaussianBlur stdDeviation="2"/>
<feComposite in2="hardAlpha" operator="out"/>
<feColorMatrix type="matrix" values="0 0 0 0 0 0 0 0 0 0 0 0 0 0 0 0 0 0 0.25 0"/>
<feBlend mode="normal" in2="BackgroundImageFix" result="effect1_dropShadow_621_14"/>
<feBlend mode="normal" in="SourceGraphic" in2="effect1_dropShadow_621_14" result="shape"/>
</filter>
</defs>
</svg>
