<svg width="18" height="19" viewBox="0 0 18 19" fill="none" xmlns="http://www.w3.org/2000/svg">
<path opacity="0.3" d="M3.09067 7.16458C3.95837 7.66771 4.54171 8.60833 4.54171 9.6875C4.54171 10.7594 3.95108 11.7073 3.08337 12.2104V14.0625H14.75V5.3125H3.08337L3.09067 7.16458ZM6.10212 10.074L7.02087 10.7958L8.76358 10.3292L7.01358 7.29583L8.03442 7.01875L10.9584 9.74583L12.7375 9.27188C12.9174 9.22433 13.1087 9.24976 13.2698 9.34263C13.431 9.4355 13.5489 9.58828 13.598 9.76771C13.6433 9.94936 13.6161 10.1415 13.5222 10.3035C13.4283 10.4655 13.275 10.5845 13.0948 10.6354L6.63442 12.3563L5.424 10.2562L6.10212 10.074Z" fill="#D9D9D9"/>
<path d="M14.8885 3.85416H3.08333C2.28125 3.85416 1.63229 4.51041 1.63229 5.31249V8.22916C2.43437 8.22916 3.08333 8.88541 3.08333 9.68749C3.08333 10.4896 2.43437 11.1458 1.625 11.1458V14.0625C1.625 14.8646 2.28125 15.5208 3.08333 15.5208H14.75C15.5521 15.5208 16.2083 14.8646 16.2083 14.0625V5.31249C16.2083 4.51041 15.6177 3.85416 14.8885 3.85416ZM14.75 14.0625H3.08333V12.2104C3.95104 11.7073 4.54167 10.7594 4.54167 9.68749C4.54167 8.60832 3.95833 7.6677 3.09063 7.16457L3.08333 5.31249H14.75V14.0625Z" fill="#D9D9D9"/>
<path d="M13.0948 10.6354C13.474 10.5261 13.6927 10.1396 13.5979 9.76773C13.5489 9.5883 13.431 9.43552 13.2698 9.34265C13.1086 9.24978 12.9173 9.22435 12.7375 9.27189L10.9583 9.74585L8.03437 7.01877L7.01353 7.29585L8.76353 10.3292L7.02082 10.7959L6.10208 10.074L5.42395 10.2563L6.63437 12.3563L13.0948 10.6354Z" fill="#D9D9D9"/>
</svg>
