<svg width="30" height="30" viewBox="0 0 30 30" fill="none" xmlns="http://www.w3.org/2000/svg">
<path d="M13.583 22.0835H16.4163V16.4168H22.083V13.5835H16.4163V7.91683H13.583V13.5835H7.91634V16.4168H13.583V22.0835ZM14.9997 29.1668C13.04 29.1668 11.1983 28.7947 9.47467 28.0505C7.75106 27.3063 6.25176 26.2971 4.97676 25.0231C3.70176 23.7481 2.69262 22.2488 1.94934 20.5252C1.20606 18.8016 0.833952 16.9599 0.833008 15.0002C0.833008 13.0404 1.20512 11.1988 1.94934 9.47516C2.69356 7.75155 3.7027 6.25225 4.97676 4.97725C6.25176 3.70225 7.75106 2.69311 9.47467 1.94983C11.1983 1.20655 13.04 0.834441 14.9997 0.833496C16.9594 0.833496 18.8011 1.20561 20.5247 1.94983C22.2483 2.69405 23.7476 3.70319 25.0226 4.97725C26.2976 6.25225 27.3072 7.75155 28.0514 9.47516C28.7956 11.1988 29.1673 13.0404 29.1663 15.0002C29.1663 16.9599 28.7942 18.8016 28.05 20.5252C27.3058 22.2488 26.2966 23.7481 25.0226 25.0231C23.7476 26.2981 22.2483 27.3077 20.5247 28.0519C18.8011 28.7961 16.9594 29.1678 14.9997 29.1668Z" fill="#F8FCFF"/>
</svg>
