<svg width="17" height="20" viewBox="0 0 17 20" fill="none" xmlns="http://www.w3.org/2000/svg">
<path d="M2 20C1.45 20 0.979002 19.804 0.587002 19.412C0.195002 19.02 -0.000664969 18.5493 1.69779e-06 18V4H2V18H13V20H2ZM6 16C5.45 16 4.979 15.804 4.587 15.412C4.195 15.02 3.99934 14.5493 4 14V2C4 1.45 4.196 0.979002 4.588 0.587002C4.98 0.195002 5.45067 -0.000664969 6 1.69779e-06H15C15.55 1.69779e-06 16.021 0.196002 16.413 0.588002C16.805 0.980002 17.0007 1.45067 17 2V14C17 14.55 16.804 15.021 16.412 15.413C16.02 15.805 15.5493 16.0007 15 16H6Z" fill="#F8FCFF"/>
</svg>
