<svg width="26" height="28" viewBox="0 0 26 28" fill="none" xmlns="http://www.w3.org/2000/svg">
<path d="M18.7318 1.275C18.7318 0.936849 18.8661 0.612548 19.1052 0.373439C19.3444 0.13433 19.6687 0 20.0068 0H24.2568C24.595 0 24.9193 0.13433 25.1584 0.373439C25.3975 0.612548 25.5318 0.936849 25.5318 1.275V5.525C25.5318 5.86315 25.3975 6.18745 25.1584 6.42656C24.9193 6.66567 24.595 6.8 24.2568 6.8C23.9187 6.8 23.5943 6.66567 23.3552 6.42656C23.1161 6.18745 22.9818 5.86315 22.9818 5.525V4.352L15.3828 11.951C15.1437 12.1898 14.8197 12.3239 14.4818 12.3239C14.1439 12.3239 13.8199 12.1898 13.5808 11.951L9.3818 7.752L2.2078 14.926C2.09108 15.0513 1.95032 15.1517 1.79392 15.2214C1.63752 15.2911 1.46869 15.3286 1.29749 15.3316C1.1263 15.3346 0.956248 15.3031 0.797488 15.239C0.638729 15.1749 0.494511 15.0794 0.373439 14.9584C0.252367 14.8373 0.156921 14.6931 0.0927955 14.5343C0.0286698 14.3756 -0.00282211 14.2055 0.000198426 14.0343C0.00321896 13.8631 0.0406904 13.6943 0.110377 13.5379C0.180063 13.3815 0.280537 13.2407 0.405804 13.124L8.4808 5.049C8.71987 4.81023 9.04393 4.67612 9.3818 4.67612C9.71968 4.67612 10.0437 4.81023 10.2828 5.049L14.4818 9.248L21.1798 2.55H20.0068C19.6687 2.55 19.3444 2.41567 19.1052 2.17656C18.8661 1.93745 18.7318 1.61315 18.7318 1.275ZM1.3068 20.4C1.64496 20.4 1.96926 20.5343 2.20837 20.7734C2.44747 21.0125 2.5818 21.3368 2.5818 21.675V25.925C2.5818 26.2631 2.44747 26.5875 2.20837 26.8266C1.96926 27.0657 1.64496 27.2 1.3068 27.2C0.968653 27.2 0.644352 27.0657 0.405243 26.8266C0.166134 26.5875 0.0318042 26.2631 0.0318042 25.925V21.675C0.0318042 21.3368 0.166134 21.0125 0.405243 20.7734C0.644352 20.5343 0.968653 20.4 1.3068 20.4ZM9.3818 16.575C9.3818 16.2368 9.24747 15.9125 9.00836 15.6734C8.76926 15.4343 8.44495 15.3 8.1068 15.3C7.76865 15.3 7.44435 15.4343 7.20524 15.6734C6.96613 15.9125 6.8318 16.2368 6.8318 16.575V25.925C6.8318 26.2631 6.96613 26.5875 7.20524 26.8266C7.44435 27.0657 7.76865 27.2 8.1068 27.2C8.44495 27.2 8.76926 27.0657 9.00836 26.8266C9.24747 26.5875 9.3818 26.2631 9.3818 25.925V16.575ZM14.9068 18.7C15.245 18.7 15.5693 18.8343 15.8084 19.0734C16.0475 19.3125 16.1818 19.6368 16.1818 19.975V25.925C16.1818 26.2631 16.0475 26.5875 15.8084 26.8266C15.5693 27.0657 15.245 27.2 14.9068 27.2C14.5687 27.2 14.2444 27.0657 14.0052 26.8266C13.7661 26.5875 13.6318 26.2631 13.6318 25.925V19.975C13.6318 19.6368 13.7661 19.3125 14.0052 19.0734C14.2444 18.8343 14.5687 18.7 14.9068 18.7ZM22.9818 13.175C22.9818 12.8368 22.8475 12.5125 22.6084 12.2734C22.3693 12.0343 22.045 11.9 21.7068 11.9C21.3687 11.9 21.0444 12.0343 20.8052 12.2734C20.5661 12.5125 20.4318 12.8368 20.4318 13.175V25.925C20.4318 26.2631 20.5661 26.5875 20.8052 26.8266C21.0444 27.0657 21.3687 27.2 21.7068 27.2C22.045 27.2 22.3693 27.0657 22.6084 26.8266C22.8475 26.5875 22.9818 26.2631 22.9818 25.925V13.175Z" fill="#F8FCFF"/>
</svg>
