<svg width="30" height="26" viewBox="0 0 30 26" fill="none" xmlns="http://www.w3.org/2000/svg">
<path d="M15 0.254395C14.4424 0.254395 13.8903 0.364214 13.3752 0.577583C12.8601 0.790952 12.3921 1.10369 11.9978 1.49795C11.6035 1.8922 11.2908 2.36025 11.0774 2.87537C10.8641 3.39048 10.7542 3.94258 10.7542 4.50014C10.7542 5.0577 10.8641 5.60981 11.0774 6.12492C11.2908 6.64004 11.6035 7.10809 11.9978 7.50234C12.3921 7.8966 12.8601 8.20934 13.3752 8.42271C13.8903 8.63608 14.4424 8.7459 15 8.7459C16.126 8.7459 17.206 8.29858 18.0022 7.50234C18.7984 6.70611 19.2458 5.62619 19.2458 4.50014C19.2458 3.3741 18.7984 2.29418 18.0022 1.49795C17.206 0.701713 16.126 0.254395 15 0.254395ZM24.5625 2.37514C23.7171 2.37514 22.9064 2.71097 22.3086 3.30874C21.7108 3.90651 21.375 4.71727 21.375 5.56264C21.375 6.40802 21.7108 7.21878 22.3086 7.81655C22.9064 8.41432 23.7171 8.75015 24.5625 8.75015C25.4079 8.75015 26.2186 8.41432 26.8164 7.81655C27.4142 7.21878 27.75 6.40802 27.75 5.56264C27.75 4.71727 27.4142 3.90651 26.8164 3.30874C26.2186 2.71097 25.4079 2.37514 24.5625 2.37514ZM5.4375 2.37514C4.59212 2.37514 3.78137 2.71097 3.1836 3.30874C2.58583 3.90651 2.25 4.71727 2.25 5.56264C2.25 6.40802 2.58583 7.21878 3.1836 7.81655C3.78137 8.41432 4.59212 8.75015 5.4375 8.75015C6.28288 8.75015 7.09363 8.41432 7.6914 7.81655C8.28918 7.21878 8.625 6.40802 8.625 5.56264C8.625 4.71727 8.28918 3.90651 7.6914 3.30874C7.09363 2.71097 6.28288 2.37514 5.4375 2.37514ZM8.625 12.9853C8.62893 12.4243 8.85454 11.8876 9.25263 11.4923C9.65072 11.097 10.189 10.8751 10.75 10.8751H19.25C19.8136 10.8751 20.3541 11.099 20.7526 11.4975C21.1511 11.8961 21.375 12.4366 21.375 13.0001V19.3751C21.3749 20.0439 21.2702 20.7086 21.0648 21.345C20.5942 22.7873 19.6249 24.0145 18.331 24.8064C17.037 25.5983 15.5031 25.903 14.0047 25.6657C12.5063 25.4285 11.1416 24.6648 10.1556 23.5118C9.1696 22.3589 8.62692 20.8922 8.625 19.3751V12.9853ZM6.5 13.0001C6.5 12.2245 6.70613 11.4999 7.0695 10.8751H2.25C1.68642 10.8751 1.14591 11.099 0.747398 11.4975C0.348884 11.8961 0.125 12.4366 0.125 13.0001V18.3126C0.124711 19.1824 0.33798 20.039 0.74608 20.8071C1.15418 21.5751 1.74463 22.2313 2.46556 22.7179C3.1865 23.2044 4.01588 23.5065 4.88087 23.5977C5.74586 23.6888 6.61999 23.5662 7.4265 23.2405C6.81488 22.0432 6.49728 20.7175 6.5 19.373V13.0001ZM23.5 13.0001V19.3751C23.5 20.767 23.1664 22.0803 22.5735 23.2405C23.38 23.5662 24.2541 23.6888 25.1191 23.5977C25.9841 23.5065 26.8135 23.2044 27.5344 22.7179C28.2554 22.2313 28.8458 21.5751 29.2539 20.8071C29.662 20.039 29.8753 19.1824 29.875 18.3126V13.0001C29.875 12.4366 29.6511 11.8961 29.2526 11.4975C28.8541 11.099 28.3136 10.8751 27.75 10.8751H22.9305C23.2918 11.4999 23.5 12.2245 23.5 13.0001Z" fill="#F8FCFF"/>
</svg>
