<svg width="49" height="45" viewBox="0 0 49 45" fill="none" xmlns="http://www.w3.org/2000/svg">
<path d="M31.6458 26.4292H30.0329L29.4613 25.9378C31.5312 23.7976 32.6689 21.0652 32.6667 18.2394C32.6667 15.8997 31.8883 13.6125 30.4301 11.6672C28.9719 9.72177 26.8993 8.20552 24.4744 7.31016C22.0494 6.41479 19.3811 6.18053 16.8068 6.63698C14.2325 7.09343 11.8679 8.2201 10.0119 9.87452C8.15598 11.5289 6.89206 13.6368 6.38 15.9315C5.86794 18.2263 6.13075 20.6048 7.13519 22.7664C8.13963 24.928 9.84058 26.7756 12.023 28.0754C14.2053 29.3753 16.7711 30.0691 19.3958 30.0691C22.6829 30.0691 25.7046 28.9953 28.0321 27.2118L28.5833 27.7214V29.1591L38.7917 38.2407L41.8338 35.529L31.6458 26.4292ZM19.3958 26.4292C14.3121 26.4292 10.2083 22.7711 10.2083 18.2394C10.2083 13.7077 14.3121 10.0496 19.3958 10.0496C24.4796 10.0496 28.5833 13.7077 28.5833 18.2394C28.5833 22.7711 24.4796 26.4292 19.3958 26.4292Z" fill="#B6B6B6"/>
</svg>
